<svg width="960" height="540" viewBox="0 0 960 540" xmlns="http://www.w3.org/2000/svg">
  <defs>
    <linearGradient id="bg" x1="0" y1="0" x2="1" y2="1">
      <stop offset="0%" stop-color="#e8f0ff"/>
      <stop offset="100%" stop-color="#f3f7ff"/>
    </linearGradient>
    <linearGradient id="primary" x1="0" y1="0" x2="1" y2="1">
      <stop offset="0%" stop-color="#3f7dff"/>
      <stop offset="100%" stop-color="#5aa4ff"/>
    </linearGradient>
  </defs>

  <rect width="960" height="540" fill="url(#bg)"/>
  <circle cx="130" cy="100" r="60" fill="#d9e7ff" opacity="0.9"/>
  <circle cx="840" cy="80" r="90" fill="#dce9ff" opacity="0.8"/>
  <circle cx="790" cy="430" r="120" fill="#e6efff" opacity="0.8"/>

  <rect x="140" y="130" rx="16" ry="16" width="680" height="300" fill="white" stroke="#d5e1ff"/>
  <rect x="170" y="170" rx="8" ry="8" width="160" height="16" fill="#7eaaff"/>
  <rect x="170" y="205" rx="6" ry="6" width="360" height="10" fill="#dfe9ff"/>
  <rect x="170" y="225" rx="6" ry="6" width="310" height="10" fill="#dfe9ff"/>

  <rect x="170" y="270" rx="10" ry="10" width="280" height="130" fill="#f5f8ff" stroke="#e2ebff"/>
  <rect x="190" y="290" rx="5" ry="5" width="120" height="10" fill="#96b8ff"/>
  <rect x="190" y="312" rx="4" ry="4" width="230" height="8" fill="#dbe7ff"/>
  <rect x="190" y="330" rx="4" ry="4" width="215" height="8" fill="#dbe7ff"/>
  <rect x="190" y="348" rx="4" ry="4" width="200" height="8" fill="#dbe7ff"/>

  <rect x="480" y="255" rx="12" ry="12" width="300" height="145" fill="url(#primary)"/>
  <rect x="510" y="290" rx="6" ry="6" width="165" height="12" fill="#dbe9ff" opacity="0.95"/>
  <rect x="510" y="316" rx="5" ry="5" width="210" height="10" fill="#dbe9ff" opacity="0.85"/>
  <rect x="510" y="336" rx="5" ry="5" width="180" height="10" fill="#dbe9ff" opacity="0.85"/>

  <path d="M530 165 L580 135 L630 165 L630 220 L580 250 L530 220 Z" fill="url(#primary)"/>
  <rect x="573" y="178" width="14" height="35" fill="white" opacity="0.9"/>
  <rect x="563" y="188" width="34" height="14" fill="white" opacity="0.9"/>
</svg>
